<?xml version="1.0" standalone="no"?>
<!DOCTYPE svg PUBLIC "-//W3C//DTD SVG 20010904//EN"
 "http://www.w3.org/TR/2001/REC-SVG-20010904/DTD/svg10.dtd">
<svg version="1.0" xmlns="http://www.w3.org/2000/svg"
 width="764.000000pt" height="764.000000pt" viewBox="0 0 764.000000 764.000000"
 preserveAspectRatio="xMidYMid meet">
<metadata>
Created by potrace 1.14, written by Peter Selinger 2001-2017
</metadata>
<g transform="translate(0.000000,764.000000) scale(0.100000,-0.100000)"
fill="#000000" stroke="none">
<path d="M0 3820 l0 -3820 3820 0 3820 0 0 3820 0 3820 -3820 0 -3820 0 0
-3820z m5590 2343 l95 -8 9 -105 c11 -131 12 -341 1 -482 l-8 -108 -51 0 c-28
0 -73 -8 -101 -17 -46 -16 -151 -18 -1325 -20 -1367 -4 -1338 -2 -1403 -53
-43 -34 -61 -97 -54 -193 5 -83 76 -543 103 -671 27 -130 68 -189 154 -223 42
-17 125 -18 1195 -25 633 -4 1191 -10 1240 -15 l90 -8 6 -75 c4 -41 12 -99 18
-129 13 -65 13 -187 0 -256 -5 -27 -12 -85 -16 -127 l-6 -78 -53 0 c-29 0 -65
-6 -81 -12 -22 -10 -289 -14 -1178 -18 -1284 -7 -1214 -2 -1288 -76 -20 -21
-46 -62 -57 -92 -27 -71 -130 -704 -130 -795 0 -105 42 -170 129 -199 27 -9
377 -13 1421 -18 762 -3 1392 -9 1401 -14 13 -5 18 -26 22 -84 3 -42 10 -122
16 -176 9 -76 9 -123 0 -200 -6 -56 -14 -131 -16 -168 l-5 -68 -48 0 c-26 0
-67 -8 -91 -17 -41 -17 -152 -18 -1814 -18 -1656 0 -1773 1 -1815 17 -26 10
-73 18 -109 18 l-64 0 7 52 c3 29 13 116 21 193 16 149 17 156 181 1170 106
650 108 663 108 830 0 146 -4 197 -31 360 -162 965 -273 1711 -277 1860 l-1
40 129 7 c71 4 131 10 134 13 9 9 3437 -2 3542 -12z"/>
</g>
</svg>
